# xmcd
#
# Track frame offsets: 
#        150
#        11655
#        27258
#        42906
#        70690
#        91877
#        109363
#        133821
#        152572
#        171305
#
# Disc length: 2577 seconds
#
# Revision: 0
# Processed by: cddbd v1.5.2PL0 Copyright (c) Steve Scherf et al.
# Submitted via: ExactAudioCopyFreeDBPlugin 1.0
#
DISCID=7f0a0f0a
DTITLE=Planningtorock - Powerhouse
DYEAR=2018
DGENRE=No, thanks.
TTITLE0=Wounds
TTITLE1=Transome
TTITLE2=Dear brother
TTITLE3=Sometimes more painful than others
TTITLE4=Much to touch
TTITLE5=Jam of Finland
TTITLE6=Non binary femme
TTITLE7=Piece of my mind
TTITLE8=Beulah loves dancing
TTITLE9=Powerhouse
EXTD=
EXTT0=
EXTT1=
EXTT2=
EXTT3=
EXTT4=
EXTT5=
EXTT6=
EXTT7=
EXTT8=
EXTT9=
PLAYORDER=
